<?xml version="1.0" encoding="UTF-8"?>
<svg xmlns="http://www.w3.org/2000/svg" xmlns:xlink="http://www.w3.org/1999/xlink" viewBox="0 0 303 303">
  <defs>
    <linearGradient id="linear-gradient" x1="-84.45" y1="110.2" x2="-83.95" y2="110.2" gradientUnits="userSpaceOnUse">
      <stop offset="0" stop-color="#28a4dd"/>
      <stop offset=".2" stop-color="#26a4dd" stop-opacity=".98"/>
      <stop offset=".37" stop-color="#23a5df" stop-opacity=".93"/>
      <stop offset=".54" stop-color="#1da6e1" stop-opacity=".84"/>
      <stop offset=".71" stop-color="#15a8e5" stop-opacity=".72"/>
      <stop offset=".87" stop-color="#0aabea" stop-opacity=".56"/>
      <stop offset="1" stop-color="#00aeef" stop-opacity=".4"/>
    </linearGradient>
  </defs>
  <g id="Layer_1" data-name="Layer 1">
    <ellipse cx="151.5" cy="296.38" rx="33.45" ry="4.99" style="fill: none; stroke: #58595b; stroke-miterlimit: 10; stroke-width: 3px;"/>
    <ellipse cx="151.5" cy="6.67" rx="33.45" ry="4.99" style="fill: none; stroke: #231f20; stroke-miterlimit: 10; stroke-width: 3px;"/>
    <ellipse cx="151.5" cy="151.5" rx="150" ry="25.61" style="fill: none; stroke: #231f20; stroke-miterlimit: 10; stroke-width: 3px;"/>
    <circle cx="151.5" cy="151.5" r="150" style="fill: none; stroke: #231f20; stroke-miterlimit: 10; stroke-width: 3px;"/>
    <ellipse cx="151.83" cy="149.37" rx="150" ry="25.61" style="fill: #fff; opacity: .33;"/>
    <line x1="1.5" y1="151.5" x2="301.5" y2="151.5" style="fill: #fff; stroke: #231f20; stroke-miterlimit: 10; stroke-width: .5px;"/>
    <line x1="150.75" y1="301.37" x2="150.75" y2="1.37" style="fill: #fff; stroke: #231f20; stroke-miterlimit: 10; stroke-width: .5px;"/>
  </g>
  <g id="Layer_3" data-name="Layer 3">
    <path d="M151.5,151.24l87.54-82.08c10.33,11.02,18.49,23.9,24.05,37.95,5.56,14.05,8.41,29.02,8.41,44.13h-120Z" style="fill: url(#linear-gradient); stroke: #231f20; stroke-miterlimit: 10;"/>
  </g>
  <g id="Layer_2" data-name="Layer 2">
    <circle cx="150.75" cy="151.52" r="7.41" style="fill: #fbb040; stroke: #231f20; stroke-miterlimit: 10;"/>
    <circle cx="259.38" cy="48.67" r="7.41" style="fill: #fbb040; stroke: #231f20; stroke-miterlimit: 10;"/>
    <line x1="150.75" y1="151.52" x2="260.71" y2="48.67" style="fill: #fbb040; stroke: #fbb040; stroke-miterlimit: 10; stroke-width: 6px;"/>
    <line x1="153.53" y1="144.66" x2="253.1" y2="51.52" style="fill: none; stroke: #231f20; stroke-miterlimit: 10;"/>
    <line x1="157.33" y1="148.51" x2="256.9" y2="55.38" style="fill: none; stroke: #231f20; stroke-miterlimit: 10;"/>
  </g>
</svg>