<?xml version="1.0" encoding="UTF-8"?>
<svg id="Layer_2" data-name="Layer 2" xmlns="http://www.w3.org/2000/svg" xmlns:xlink="http://www.w3.org/1999/xlink" viewBox="0 0 120.16 141.79">
  <defs>
    <linearGradient id="linear-gradient" x1="0" y1="72.99" x2="106.48" y2="72.99" gradientUnits="userSpaceOnUse">
      <stop offset="0" stop-color="#01fae7"/>
      <stop offset=".69" stop-color="#0d2ea4"/>
    </linearGradient>
  </defs>
  <path d="M0,55.81H39.57m-33.46,.46l42.58,40.7m.2-66.47l12.57-11.07m-22.73,54.56l13.27-10.62m29.17,63.14l-30.09-29.46M73.69,30.55l27.62,25.68m-77.37-.41l12.87-11.16m34.81,51.98l-24.19-.04M39.37,30.48l63.9,.13m-14.35-10.89l-28.29,.09m45.27,86.94l-26.38-.05m3.76-25.88l-37.95-.19m18.06-16.94l-12.35-.06m55.43-7.81h-6.19m-5.52,70.46l-14.52-.2m-12.49-80.99h-31.84m4.22-14.6L12.44,55.81m6.92,0l26.86,25.21m33.84,45.12l1.02-1.45m-9.83-7.62l9.48-10.88M44.56,51.81c-2.21,0-4,1.79-4,4s1.79,4,4,4,4-1.79,4-4-1.79-4-4-4Zm24.41,7.6c-2.35,0-4.25,1.9-4.25,4.25s1.9,4.25,4.25,4.25,4.25-1.9,4.25-4.25-1.9-4.25-4.25-4.25Zm4-18.33c-2.21,0-4,1.79-4,4s1.79,4,4,4,4-1.79,4-4-1.79-4-4-4Zm3.79,51.28c-2.35,0-4.25,1.9-4.25,4.25s1.9,4.25,4.25,4.25,4.25-1.9,4.25-4.25-1.9-4.25-4.25-4.25Z" style="fill: none; stroke: url(#linear-gradient); stroke-miterlimit: 10; stroke-width: 3px;"/>
  <path d="M93.69,134.8v-16.1h10.3v2.85h-7.29v3.43h5.66v2.85h-5.66v4.12h7.52v2.85h-10.53Z" style="fill: #0d21a0;"/>
  <path d="M113.54,115.16c-1.78,0-3.3-.36-4.56-1.09-1.26-.72-2.23-1.74-2.9-3.05-.67-1.31-1.01-2.85-1.01-4.62s.37-3.28,1.12-4.59c.75-1.31,1.78-2.32,3.1-3.04,1.32-.72,2.84-1.08,4.56-1.08,.89,0,1.74,.09,2.55,.28,.81,.18,1.51,.42,2.08,.71l-.34,2.93c-.6-.28-1.26-.51-1.99-.69-.72-.18-1.49-.27-2.31-.27-1.25,0-2.27,.25-3.07,.75s-1.39,1.18-1.78,2.04c-.38,.86-.58,1.83-.58,2.92,0,1.14,.19,2.16,.58,3.04,.39,.88,.97,1.57,1.75,2.07,.78,.5,1.74,.75,2.9,.75,.35,0,.72-.02,1.11-.07s.79-.11,1.19-.19v-3h-2.3v-2.54h5.38v7.49c-.58,.34-1.36,.64-2.32,.89-.96,.25-2.02,.38-3.17,.38Z" style="fill: #0d21a0;"/>
  <path d="M87.87,68.44h.79l-4.85,13.8h-2.98l5.98-16.8h2.9l5.98,16.8h-2.98l-4.85-13.8Zm3.91,9.82h-7.03v-2.69h7.03v2.69Z" style="fill: #0d21a0;"/>
  <path d="M113.54,63.16c-1.78,0-3.3-.36-4.56-1.09s-2.23-1.74-2.9-3.05c-.67-1.31-1.01-2.85-1.01-4.62s.37-3.28,1.12-4.59c.75-1.31,1.78-2.32,3.1-3.04,1.32-.72,2.84-1.08,4.56-1.08,.89,0,1.74,.09,2.55,.28,.81,.18,1.51,.42,2.08,.71l-.34,2.93c-.6-.28-1.26-.51-1.99-.69-.72-.18-1.49-.27-2.31-.27-1.25,0-2.27,.25-3.07,.75s-1.39,1.18-1.78,2.04c-.38,.86-.58,1.83-.58,2.92,0,1.14,.19,2.16,.58,3.04,.39,.88,.97,1.57,1.75,2.07,.78,.5,1.74,.75,2.9,.75,.35,0,.72-.02,1.11-.07s.79-.11,1.19-.19v-3h-2.3v-2.54h5.38v7.49c-.58,.34-1.36,.64-2.32,.89-.96,.25-2.02,.38-3.17,.38Z" style="fill: #0d21a0;"/>
  <path d="M102.21,32.12V15.32h3.02l7.18,10.85V15.32h3.07v16.8h-2.52l-7.68-11.52v11.52h-3.07Z" style="fill: #0d21a0;"/>
  <path d="M87.15,21.25V3.75h11.2v3.1h-7.92v3.73h6.15v3.1h-6.15v4.48h8.17v3.1h-11.45Z" style="fill: #0d21a0;"/>
</svg>