<?xml version="1.0" encoding="UTF-8"?>
<svg id="Layer_1" data-name="Layer 1" xmlns="http://www.w3.org/2000/svg" viewBox="0 0 294.95 200.34">
  <defs>
    <style>
      .cls-1 {
        fill: #fff200;
      }

      .cls-1, .cls-2, .cls-3 {
        stroke-width: 0px;
      }

      .cls-2 {
        fill: #fff;
      }

      .cls-3 {
        fill: #034ea2;
      }
    </style>
  </defs>
  <rect class="cls-2" width="294.95" height="200.34"/>
  <rect class="cls-3" x="5.67" y="5.49" width="283.6" height="189.07"/>
  <g>
    <polygon class="cls-1" points="141.43 46.69 147.41 42.32 153.4 46.69 151.12 39.62 157.2 35.26 149.71 35.26 147.41 28.11 145.12 35.27 137.63 35.26 143.71 39.62 141.43 46.69"/>
    <polygon class="cls-1" points="110.46 55.01 116.45 50.64 122.43 55.01 120.15 47.95 126.23 43.58 118.73 43.58 116.44 36.42 114.15 43.59 106.66 43.58 112.73 47.95 110.46 55.01"/>
    <polygon class="cls-1" points="93.79 59.13 91.49 66.3 84 66.29 90.08 70.66 87.8 77.72 93.79 73.35 99.77 77.72 97.49 70.66 103.57 66.29 96.08 66.29 93.79 59.13"/>
    <polygon class="cls-1" points="85.47 104.28 91.45 108.65 89.18 101.59 95.25 97.22 87.77 97.22 85.47 90.06 83.18 97.23 75.69 97.22 81.77 101.59 79.49 108.65 85.47 104.28"/>
    <polygon class="cls-1" points="96.08 128.24 93.79 121.09 91.49 128.25 84 128.24 90.08 132.61 87.8 139.67 93.79 135.3 99.77 139.67 97.49 132.61 103.57 128.24 96.08 128.24"/>
    <polygon class="cls-1" points="118.78 150.95 116.49 143.8 114.2 150.95 106.71 150.95 112.78 155.31 110.51 162.37 116.49 158.01 122.47 162.37 120.2 155.31 126.27 150.95 118.78 150.95"/>
    <polygon class="cls-1" points="149.71 159.17 147.42 152.02 145.13 159.18 137.64 159.17 143.71 163.54 141.44 170.6 147.42 166.23 153.4 170.6 151.12 163.54 157.2 159.17 149.71 159.17"/>
    <polygon class="cls-1" points="180.64 150.95 178.35 143.8 176.05 150.95 168.57 150.95 174.64 155.31 172.37 162.37 178.35 158.01 184.34 162.37 182.05 155.31 188.13 150.95 180.64 150.95"/>
    <polygon class="cls-1" points="203.35 128.24 201.05 121.09 198.76 128.25 191.27 128.24 197.35 132.61 195.07 139.67 201.05 135.3 207.04 139.67 204.76 132.61 210.84 128.24 203.35 128.24"/>
    <polygon class="cls-1" points="219.06 97.13 211.57 97.13 209.27 89.98 206.98 97.14 199.49 97.13 205.57 101.5 203.3 108.56 209.27 104.19 215.26 108.56 212.98 101.5 219.06 97.13"/>
    <polygon class="cls-1" points="195.07 77.62 201.05 73.26 207.04 77.62 204.76 70.56 210.84 66.2 203.35 66.2 201.05 59.05 198.76 66.21 191.27 66.2 197.35 70.56 195.07 77.62"/>
    <polygon class="cls-1" points="178.44 36.43 176.15 43.59 168.66 43.58 174.73 47.95 172.45 55.02 178.45 50.64 184.42 55.02 182.15 47.95 188.23 43.58 180.73 43.58 178.44 36.43"/>
  </g>
</svg>