<?xml version="1.0" encoding="utf-8"?>
<!DOCTYPE svg PUBLIC "-//W3C//DTD SVG 1.1//EN" "http://www.w3.org/Graphics/SVG/1.1/DTD/svg11.dtd">
<svg version="1.1" id="Layer_1" xmlns="http://www.w3.org/2000/svg" xmlns:xlink="http://www.w3.org/1999/xlink" x="0px" y="0px"
width="1189px" height="1189px" viewBox="0 0 1189 1189" enable-background="new 0 0 1189 1189" xml:space="preserve">
<rect x="0" y="0" width="1189" height="1189" fill="rgb(255,255,255)" /><g transform="translate(82,82)"><g transform="translate(328,0) scale(0.41,0.41)"><g transform="" style="fill: rgb(0, 166, 235);">
<rect width="100" height="100"/>
</g></g><g transform="translate(410,0) scale(0.41,0.41)"><g transform="" style="fill: rgb(0, 166, 235);">
<rect width="100" height="100"/>
</g></g><g transform="translate(533,0) scale(0.41,0.41)"><g transform="" style="fill: rgb(0, 166, 235);">
<rect width="100" height="100"/>
</g></g><g transform="translate(574,0) scale(0.41,0.41)"><g transform="" style="fill: rgb(0, 166, 235);">
<rect width="100" height="100"/>
</g></g><g transform="translate(574,41) scale(0.41,0.41)"><g transform="" style="fill: rgb(0, 166, 235);">
<rect width="100" height="100"/>
</g></g><g transform="translate(656,41) scale(0.41,0.41)"><g transform="" style="fill: rgb(0, 166, 235);">
<rect width="100" height="100"/>
</g></g><g transform="translate(328,82) scale(0.41,0.41)"><g transform="" style="fill: rgb(0, 166, 235);">
<rect width="100" height="100"/>
</g></g><g transform="translate(369,82) scale(0.41,0.41)"><g transform="" style="fill: rgb(0, 166, 235);">
<rect width="100" height="100"/>
</g></g><g transform="translate(410,82) scale(0.41,0.41)"><g transform="" style="fill: rgb(0, 166, 235);">
<rect width="100" height="100"/>
</g></g><g transform="translate(533,82) scale(0.41,0.41)"><g transform="" style="fill: rgb(0, 166, 235);">
<rect width="100" height="100"/>
</g></g><g transform="translate(574,82) scale(0.41,0.41)"><g transform="" style="fill: rgb(0, 166, 235);">
<rect width="100" height="100"/>
</g></g><g transform="translate(615,82) scale(0.41,0.41)"><g transform="" style="fill: rgb(0, 166, 235);">
<rect width="100" height="100"/>
</g></g><g transform="translate(369,123) scale(0.41,0.41)"><g transform="" style="fill: rgb(0, 166, 235);">
<rect width="100" height="100"/>
</g></g><g transform="translate(410,123) scale(0.41,0.41)"><g transform="" style="fill: rgb(0, 166, 235);">
<rect width="100" height="100"/>
</g></g><g transform="translate(451,123) scale(0.41,0.41)"><g transform="" style="fill: rgb(0, 166, 235);">
<rect width="100" height="100"/>
</g></g><g transform="translate(533,123) scale(0.41,0.41)"><g transform="" style="fill: rgb(0, 166, 235);">
<rect width="100" height="100"/>
</g></g><g transform="translate(574,123) scale(0.41,0.41)"><g transform="" style="fill: rgb(0, 166, 235);">
<rect width="100" height="100"/>
</g></g><g transform="translate(656,123) scale(0.41,0.41)"><g transform="" style="fill: rgb(0, 166, 235);">
<rect width="100" height="100"/>
</g></g><g transform="translate(369,164) scale(0.41,0.41)"><g transform="" style="fill: rgb(0, 166, 235);">
<rect width="100" height="100"/>
</g></g><g transform="translate(410,164) scale(0.41,0.41)"><g transform="" style="fill: rgb(0, 166, 235);">
<rect width="100" height="100"/>
</g></g><g transform="translate(451,164) scale(0.41,0.41)"><g transform="" style="fill: rgb(0, 166, 235);">
<rect width="100" height="100"/>
</g></g><g transform="translate(492,164) scale(0.41,0.41)"><g transform="" style="fill: rgb(0, 166, 235);">
<rect width="100" height="100"/>
</g></g><g transform="translate(328,205) scale(0.41,0.41)"><g transform="" style="fill: rgb(0, 166, 235);">
<rect width="100" height="100"/>
</g></g><g transform="translate(410,205) scale(0.41,0.41)"><g transform="" style="fill: rgb(0, 166, 235);">
<rect width="100" height="100"/>
</g></g><g transform="translate(492,205) scale(0.41,0.41)"><g transform="" style="fill: rgb(0, 166, 235);">
<rect width="100" height="100"/>
</g></g><g transform="translate(656,205) scale(0.41,0.41)"><g transform="" style="fill: rgb(0, 166, 235);">
<rect width="100" height="100"/>
</g></g><g transform="translate(328,246) scale(0.41,0.41)"><g transform="" style="fill: rgb(0, 166, 235);">
<rect width="100" height="100"/>
</g></g><g transform="translate(410,246) scale(0.41,0.41)"><g transform="" style="fill: rgb(0, 166, 235);">
<rect width="100" height="100"/>
</g></g><g transform="translate(492,246) scale(0.41,0.41)"><g transform="" style="fill: rgb(0, 166, 235);">
<rect width="100" height="100"/>
</g></g><g transform="translate(574,246) scale(0.41,0.41)"><g transform="" style="fill: rgb(0, 166, 235);">
<rect width="100" height="100"/>
</g></g><g transform="translate(656,246) scale(0.41,0.41)"><g transform="" style="fill: rgb(0, 166, 235);">
<rect width="100" height="100"/>
</g></g><g transform="translate(410,287) scale(0.41,0.41)"><g transform="" style="fill: rgb(0, 166, 235);">
<rect width="100" height="100"/>
</g></g><g transform="translate(451,287) scale(0.41,0.41)"><g transform="" style="fill: rgb(0, 166, 235);">
<rect width="100" height="100"/>
</g></g><g transform="translate(492,287) scale(0.41,0.41)"><g transform="" style="fill: rgb(0, 166, 235);">
<rect width="100" height="100"/>
</g></g><g transform="translate(615,287) scale(0.41,0.41)"><g transform="" style="fill: rgb(0, 166, 235);">
<rect width="100" height="100"/>
</g></g><g transform="translate(0,328) scale(0.41,0.41)"><g transform="" style="fill: rgb(0, 166, 235);">
<rect width="100" height="100"/>
</g></g><g transform="translate(82,328) scale(0.41,0.41)"><g transform="" style="fill: rgb(0, 166, 235);">
<rect width="100" height="100"/>
</g></g><g transform="translate(246,328) scale(0.41,0.41)"><g transform="" style="fill: rgb(0, 166, 235);">
<rect width="100" height="100"/>
</g></g><g transform="translate(287,328) scale(0.41,0.41)"><g transform="" style="fill: rgb(0, 166, 235);">
<rect width="100" height="100"/>
</g></g><g transform="translate(492,328) scale(0.41,0.41)"><g transform="" style="fill: rgb(0, 166, 235);">
<rect width="100" height="100"/>
</g></g><g transform="translate(574,328) scale(0.41,0.41)"><g transform="" style="fill: rgb(0, 166, 235);">
<rect width="100" height="100"/>
</g></g><g transform="translate(615,328) scale(0.41,0.41)"><g transform="" style="fill: rgb(0, 166, 235);">
<rect width="100" height="100"/>
</g></g><g transform="translate(779,328) scale(0.41,0.41)"><g transform="" style="fill: rgb(0, 166, 235);">
<rect width="100" height="100"/>
</g></g><g transform="translate(902,328) scale(0.41,0.41)"><g transform="" style="fill: rgb(0, 166, 235);">
<rect width="100" height="100"/>
</g></g><g transform="translate(984,328) scale(0.41,0.41)"><g transform="" style="fill: rgb(0, 166, 235);">
<rect width="100" height="100"/>
</g></g><g transform="translate(0,369) scale(0.41,0.41)"><g transform="" style="fill: rgb(0, 166, 235);">
<rect width="100" height="100"/>
</g></g><g transform="translate(82,369) scale(0.41,0.41)"><g transform="" style="fill: rgb(0, 166, 235);">
<rect width="100" height="100"/>
</g></g><g transform="translate(123,369) scale(0.41,0.41)"><g transform="" style="fill: rgb(0, 166, 235);">
<rect width="100" height="100"/>
</g></g><g transform="translate(164,369) scale(0.41,0.41)"><g transform="" style="fill: rgb(0, 166, 235);">
<rect width="100" height="100"/>
</g></g><g transform="translate(328,369) scale(0.41,0.41)"><g transform="" style="fill: rgb(0, 166, 235);">
<rect width="100" height="100"/>
</g></g><g transform="translate(451,369) scale(0.41,0.41)"><g transform="" style="fill: rgb(0, 166, 235);">
<rect width="100" height="100"/>
</g></g><g transform="translate(574,369) scale(0.41,0.41)"><g transform="" style="fill: rgb(0, 166, 235);">
<rect width="100" height="100"/>
</g></g><g transform="translate(615,369) scale(0.41,0.41)"><g transform="" style="fill: rgb(0, 166, 235);">
<rect width="100" height="100"/>
</g></g><g transform="translate(656,369) scale(0.41,0.41)"><g transform="" style="fill: rgb(0, 166, 235);">
<rect width="100" height="100"/>
</g></g><g transform="translate(738,369) scale(0.41,0.41)"><g transform="" style="fill: rgb(0, 166, 235);">
<rect width="100" height="100"/>
</g></g><g transform="translate(779,369) scale(0.41,0.41)"><g transform="" style="fill: rgb(0, 166, 235);">
<rect width="100" height="100"/>
</g></g><g transform="translate(861,369) scale(0.41,0.41)"><g transform="" style="fill: rgb(0, 166, 235);">
<rect width="100" height="100"/>
</g></g><g transform="translate(943,369) scale(0.41,0.41)"><g transform="" style="fill: rgb(0, 166, 235);">
<rect width="100" height="100"/>
</g></g><g transform="translate(984,369) scale(0.41,0.41)"><g transform="" style="fill: rgb(0, 166, 235);">
<rect width="100" height="100"/>
</g></g><g transform="translate(0,410) scale(0.41,0.41)"><g transform="" style="fill: rgb(0, 166, 235);">
<rect width="100" height="100"/>
</g></g><g transform="translate(82,410) scale(0.41,0.41)"><g transform="" style="fill: rgb(0, 166, 235);">
<rect width="100" height="100"/>
</g></g><g transform="translate(246,410) scale(0.41,0.41)"><g transform="" style="fill: rgb(0, 166, 235);">
<rect width="100" height="100"/>
</g></g><g transform="translate(287,410) scale(0.41,0.41)"><g transform="" style="fill: rgb(0, 166, 235);">
<rect width="100" height="100"/>
</g></g><g transform="translate(369,410) scale(0.41,0.41)"><g transform="" style="fill: rgb(0, 166, 235);">
<rect width="100" height="100"/>
</g></g><g transform="translate(410,410) scale(0.41,0.41)"><g transform="" style="fill: rgb(0, 166, 235);">
<rect width="100" height="100"/>
</g></g><g transform="translate(492,410) scale(0.41,0.41)"><g transform="" style="fill: rgb(0, 166, 235);">
<rect width="100" height="100"/>
</g></g><g transform="translate(574,410) scale(0.41,0.41)"><g transform="" style="fill: rgb(0, 166, 235);">
<rect width="100" height="100"/>
</g></g><g transform="translate(615,410) scale(0.41,0.41)"><g transform="" style="fill: rgb(0, 166, 235);">
<rect width="100" height="100"/>
</g></g><g transform="translate(697,410) scale(0.41,0.41)"><g transform="" style="fill: rgb(0, 166, 235);">
<rect width="100" height="100"/>
</g></g><g transform="translate(738,410) scale(0.41,0.41)"><g transform="" style="fill: rgb(0, 166, 235);">
<rect width="100" height="100"/>
</g></g><g transform="translate(779,410) scale(0.41,0.41)"><g transform="" style="fill: rgb(0, 166, 235);">
<rect width="100" height="100"/>
</g></g><g transform="translate(861,410) scale(0.41,0.41)"><g transform="" style="fill: rgb(0, 166, 235);">
<rect width="100" height="100"/>
</g></g><g transform="translate(902,410) scale(0.41,0.41)"><g transform="" style="fill: rgb(0, 166, 235);">
<rect width="100" height="100"/>
</g></g><g transform="translate(984,410) scale(0.41,0.41)"><g transform="" style="fill: rgb(0, 166, 235);">
<rect width="100" height="100"/>
</g></g><g transform="translate(0,451) scale(0.41,0.41)"><g transform="" style="fill: rgb(0, 166, 235);">
<rect width="100" height="100"/>
</g></g><g transform="translate(82,451) scale(0.41,0.41)"><g transform="" style="fill: rgb(0, 166, 235);">
<rect width="100" height="100"/>
</g></g><g transform="translate(205,451) scale(0.41,0.41)"><g transform="" style="fill: rgb(0, 166, 235);">
<rect width="100" height="100"/>
</g></g><g transform="translate(287,451) scale(0.41,0.41)"><g transform="" style="fill: rgb(0, 166, 235);">
<rect width="100" height="100"/>
</g></g><g transform="translate(328,451) scale(0.41,0.41)"><g transform="" style="fill: rgb(0, 166, 235);">
<rect width="100" height="100"/>
</g></g><g transform="translate(369,451) scale(0.41,0.41)"><g transform="" style="fill: rgb(0, 166, 235);">
<rect width="100" height="100"/>
</g></g><g transform="translate(410,451) scale(0.41,0.41)"><g transform="" style="fill: rgb(0, 166, 235);">
<rect width="100" height="100"/>
</g></g><g transform="translate(451,451) scale(0.41,0.41)"><g transform="" style="fill: rgb(0, 166, 235);">
<rect width="100" height="100"/>
</g></g><g transform="translate(492,451) scale(0.41,0.41)"><g transform="" style="fill: rgb(0, 166, 235);">
<rect width="100" height="100"/>
</g></g><g transform="translate(574,451) scale(0.41,0.41)"><g transform="" style="fill: rgb(0, 166, 235);">
<rect width="100" height="100"/>
</g></g><g transform="translate(738,451) scale(0.41,0.41)"><g transform="" style="fill: rgb(0, 166, 235);">
<rect width="100" height="100"/>
</g></g><g transform="translate(861,451) scale(0.41,0.41)"><g transform="" style="fill: rgb(0, 166, 235);">
<rect width="100" height="100"/>
</g></g><g transform="translate(0,492) scale(0.41,0.41)"><g transform="" style="fill: rgb(0, 166, 235);">
<rect width="100" height="100"/>
</g></g><g transform="translate(41,492) scale(0.41,0.41)"><g transform="" style="fill: rgb(0, 166, 235);">
<rect width="100" height="100"/>
</g></g><g transform="translate(123,492) scale(0.41,0.41)"><g transform="" style="fill: rgb(0, 166, 235);">
<rect width="100" height="100"/>
</g></g><g transform="translate(205,492) scale(0.41,0.41)"><g transform="" style="fill: rgb(0, 166, 235);">
<rect width="100" height="100"/>
</g></g><g transform="translate(246,492) scale(0.41,0.41)"><g transform="" style="fill: rgb(0, 166, 235);">
<rect width="100" height="100"/>
</g></g><g transform="translate(451,492) scale(0.41,0.41)"><g transform="" style="fill: rgb(0, 166, 235);">
<rect width="100" height="100"/>
</g></g><g transform="translate(533,492) scale(0.41,0.41)"><g transform="" style="fill: rgb(0, 166, 235);">
<rect width="100" height="100"/>
</g></g><g transform="translate(574,492) scale(0.41,0.41)"><g transform="" style="fill: rgb(0, 166, 235);">
<rect width="100" height="100"/>
</g></g><g transform="translate(615,492) scale(0.41,0.41)"><g transform="" style="fill: rgb(0, 166, 235);">
<rect width="100" height="100"/>
</g></g><g transform="translate(697,492) scale(0.41,0.41)"><g transform="" style="fill: rgb(0, 166, 235);">
<rect width="100" height="100"/>
</g></g><g transform="translate(738,492) scale(0.41,0.41)"><g transform="" style="fill: rgb(0, 166, 235);">
<rect width="100" height="100"/>
</g></g><g transform="translate(984,492) scale(0.41,0.41)"><g transform="" style="fill: rgb(0, 166, 235);">
<rect width="100" height="100"/>
</g></g><g transform="translate(82,533) scale(0.41,0.41)"><g transform="" style="fill: rgb(0, 166, 235);">
<rect width="100" height="100"/>
</g></g><g transform="translate(123,533) scale(0.41,0.41)"><g transform="" style="fill: rgb(0, 166, 235);">
<rect width="100" height="100"/>
</g></g><g transform="translate(205,533) scale(0.41,0.41)"><g transform="" style="fill: rgb(0, 166, 235);">
<rect width="100" height="100"/>
</g></g><g transform="translate(287,533) scale(0.41,0.41)"><g transform="" style="fill: rgb(0, 166, 235);">
<rect width="100" height="100"/>
</g></g><g transform="translate(328,533) scale(0.41,0.41)"><g transform="" style="fill: rgb(0, 166, 235);">
<rect width="100" height="100"/>
</g></g><g transform="translate(533,533) scale(0.41,0.41)"><g transform="" style="fill: rgb(0, 166, 235);">
<rect width="100" height="100"/>
</g></g><g transform="translate(615,533) scale(0.41,0.41)"><g transform="" style="fill: rgb(0, 166, 235);">
<rect width="100" height="100"/>
</g></g><g transform="translate(738,533) scale(0.41,0.41)"><g transform="" style="fill: rgb(0, 166, 235);">
<rect width="100" height="100"/>
</g></g><g transform="translate(779,533) scale(0.41,0.41)"><g transform="" style="fill: rgb(0, 166, 235);">
<rect width="100" height="100"/>
</g></g><g transform="translate(943,533) scale(0.41,0.41)"><g transform="" style="fill: rgb(0, 166, 235);">
<rect width="100" height="100"/>
</g></g><g transform="translate(984,533) scale(0.41,0.41)"><g transform="" style="fill: rgb(0, 166, 235);">
<rect width="100" height="100"/>
</g></g><g transform="translate(0,574) scale(0.41,0.41)"><g transform="" style="fill: rgb(0, 166, 235);">
<rect width="100" height="100"/>
</g></g><g transform="translate(41,574) scale(0.41,0.41)"><g transform="" style="fill: rgb(0, 166, 235);">
<rect width="100" height="100"/>
</g></g><g transform="translate(205,574) scale(0.41,0.41)"><g transform="" style="fill: rgb(0, 166, 235);">
<rect width="100" height="100"/>
</g></g><g transform="translate(246,574) scale(0.41,0.41)"><g transform="" style="fill: rgb(0, 166, 235);">
<rect width="100" height="100"/>
</g></g><g transform="translate(287,574) scale(0.41,0.41)"><g transform="" style="fill: rgb(0, 166, 235);">
<rect width="100" height="100"/>
</g></g><g transform="translate(410,574) scale(0.41,0.41)"><g transform="" style="fill: rgb(0, 166, 235);">
<rect width="100" height="100"/>
</g></g><g transform="translate(451,574) scale(0.41,0.41)"><g transform="" style="fill: rgb(0, 166, 235);">
<rect width="100" height="100"/>
</g></g><g transform="translate(615,574) scale(0.41,0.41)"><g transform="" style="fill: rgb(0, 166, 235);">
<rect width="100" height="100"/>
</g></g><g transform="translate(861,574) scale(0.41,0.41)"><g transform="" style="fill: rgb(0, 166, 235);">
<rect width="100" height="100"/>
</g></g><g transform="translate(902,574) scale(0.41,0.41)"><g transform="" style="fill: rgb(0, 166, 235);">
<rect width="100" height="100"/>
</g></g><g transform="translate(984,574) scale(0.41,0.41)"><g transform="" style="fill: rgb(0, 166, 235);">
<rect width="100" height="100"/>
</g></g><g transform="translate(82,615) scale(0.41,0.41)"><g transform="" style="fill: rgb(0, 166, 235);">
<rect width="100" height="100"/>
</g></g><g transform="translate(164,615) scale(0.41,0.41)"><g transform="" style="fill: rgb(0, 166, 235);">
<rect width="100" height="100"/>
</g></g><g transform="translate(205,615) scale(0.41,0.41)"><g transform="" style="fill: rgb(0, 166, 235);">
<rect width="100" height="100"/>
</g></g><g transform="translate(369,615) scale(0.41,0.41)"><g transform="" style="fill: rgb(0, 166, 235);">
<rect width="100" height="100"/>
</g></g><g transform="translate(410,615) scale(0.41,0.41)"><g transform="" style="fill: rgb(0, 166, 235);">
<rect width="100" height="100"/>
</g></g><g transform="translate(533,615) scale(0.41,0.41)"><g transform="" style="fill: rgb(0, 166, 235);">
<rect width="100" height="100"/>
</g></g><g transform="translate(615,615) scale(0.41,0.41)"><g transform="" style="fill: rgb(0, 166, 235);">
<rect width="100" height="100"/>
</g></g><g transform="translate(656,615) scale(0.41,0.41)"><g transform="" style="fill: rgb(0, 166, 235);">
<rect width="100" height="100"/>
</g></g><g transform="translate(738,615) scale(0.41,0.41)"><g transform="" style="fill: rgb(0, 166, 235);">
<rect width="100" height="100"/>
</g></g><g transform="translate(779,615) scale(0.41,0.41)"><g transform="" style="fill: rgb(0, 166, 235);">
<rect width="100" height="100"/>
</g></g><g transform="translate(820,615) scale(0.41,0.41)"><g transform="" style="fill: rgb(0, 166, 235);">
<rect width="100" height="100"/>
</g></g><g transform="translate(861,615) scale(0.41,0.41)"><g transform="" style="fill: rgb(0, 166, 235);">
<rect width="100" height="100"/>
</g></g><g transform="translate(0,656) scale(0.41,0.41)"><g transform="" style="fill: rgb(0, 166, 235);">
<rect width="100" height="100"/>
</g></g><g transform="translate(41,656) scale(0.41,0.41)"><g transform="" style="fill: rgb(0, 166, 235);">
<rect width="100" height="100"/>
</g></g><g transform="translate(123,656) scale(0.41,0.41)"><g transform="" style="fill: rgb(0, 166, 235);">
<rect width="100" height="100"/>
</g></g><g transform="translate(164,656) scale(0.41,0.41)"><g transform="" style="fill: rgb(0, 166, 235);">
<rect width="100" height="100"/>
</g></g><g transform="translate(205,656) scale(0.41,0.41)"><g transform="" style="fill: rgb(0, 166, 235);">
<rect width="100" height="100"/>
</g></g><g transform="translate(246,656) scale(0.41,0.41)"><g transform="" style="fill: rgb(0, 166, 235);">
<rect width="100" height="100"/>
</g></g><g transform="translate(369,656) scale(0.41,0.41)"><g transform="" style="fill: rgb(0, 166, 235);">
<rect width="100" height="100"/>
</g></g><g transform="translate(451,656) scale(0.41,0.41)"><g transform="" style="fill: rgb(0, 166, 235);">
<rect width="100" height="100"/>
</g></g><g transform="translate(492,656) scale(0.41,0.41)"><g transform="" style="fill: rgb(0, 166, 235);">
<rect width="100" height="100"/>
</g></g><g transform="translate(533,656) scale(0.41,0.41)"><g transform="" style="fill: rgb(0, 166, 235);">
<rect width="100" height="100"/>
</g></g><g transform="translate(656,656) scale(0.41,0.41)"><g transform="" style="fill: rgb(0, 166, 235);">
<rect width="100" height="100"/>
</g></g><g transform="translate(697,656) scale(0.41,0.41)"><g transform="" style="fill: rgb(0, 166, 235);">
<rect width="100" height="100"/>
</g></g><g transform="translate(738,656) scale(0.41,0.41)"><g transform="" style="fill: rgb(0, 166, 235);">
<rect width="100" height="100"/>
</g></g><g transform="translate(779,656) scale(0.41,0.41)"><g transform="" style="fill: rgb(0, 166, 235);">
<rect width="100" height="100"/>
</g></g><g transform="translate(820,656) scale(0.41,0.41)"><g transform="" style="fill: rgb(0, 166, 235);">
<rect width="100" height="100"/>
</g></g><g transform="translate(943,656) scale(0.41,0.41)"><g transform="" style="fill: rgb(0, 166, 235);">
<rect width="100" height="100"/>
</g></g><g transform="translate(328,697) scale(0.41,0.41)"><g transform="" style="fill: rgb(0, 166, 235);">
<rect width="100" height="100"/>
</g></g><g transform="translate(369,697) scale(0.41,0.41)"><g transform="" style="fill: rgb(0, 166, 235);">
<rect width="100" height="100"/>
</g></g><g transform="translate(410,697) scale(0.41,0.41)"><g transform="" style="fill: rgb(0, 166, 235);">
<rect width="100" height="100"/>
</g></g><g transform="translate(492,697) scale(0.41,0.41)"><g transform="" style="fill: rgb(0, 166, 235);">
<rect width="100" height="100"/>
</g></g><g transform="translate(656,697) scale(0.41,0.41)"><g transform="" style="fill: rgb(0, 166, 235);">
<rect width="100" height="100"/>
</g></g><g transform="translate(820,697) scale(0.41,0.41)"><g transform="" style="fill: rgb(0, 166, 235);">
<rect width="100" height="100"/>
</g></g><g transform="translate(984,697) scale(0.41,0.41)"><g transform="" style="fill: rgb(0, 166, 235);">
<rect width="100" height="100"/>
</g></g><g transform="translate(328,738) scale(0.41,0.41)"><g transform="" style="fill: rgb(0, 166, 235);">
<rect width="100" height="100"/>
</g></g><g transform="translate(492,738) scale(0.41,0.41)"><g transform="" style="fill: rgb(0, 166, 235);">
<rect width="100" height="100"/>
</g></g><g transform="translate(533,738) scale(0.41,0.41)"><g transform="" style="fill: rgb(0, 166, 235);">
<rect width="100" height="100"/>
</g></g><g transform="translate(574,738) scale(0.41,0.41)"><g transform="" style="fill: rgb(0, 166, 235);">
<rect width="100" height="100"/>
</g></g><g transform="translate(656,738) scale(0.41,0.41)"><g transform="" style="fill: rgb(0, 166, 235);">
<rect width="100" height="100"/>
</g></g><g transform="translate(738,738) scale(0.41,0.41)"><g transform="" style="fill: rgb(0, 166, 235);">
<rect width="100" height="100"/>
</g></g><g transform="translate(820,738) scale(0.41,0.41)"><g transform="" style="fill: rgb(0, 166, 235);">
<rect width="100" height="100"/>
</g></g><g transform="translate(984,738) scale(0.41,0.41)"><g transform="" style="fill: rgb(0, 166, 235);">
<rect width="100" height="100"/>
</g></g><g transform="translate(369,779) scale(0.41,0.41)"><g transform="" style="fill: rgb(0, 166, 235);">
<rect width="100" height="100"/>
</g></g><g transform="translate(410,779) scale(0.41,0.41)"><g transform="" style="fill: rgb(0, 166, 235);">
<rect width="100" height="100"/>
</g></g><g transform="translate(451,779) scale(0.41,0.41)"><g transform="" style="fill: rgb(0, 166, 235);">
<rect width="100" height="100"/>
</g></g><g transform="translate(492,779) scale(0.41,0.41)"><g transform="" style="fill: rgb(0, 166, 235);">
<rect width="100" height="100"/>
</g></g><g transform="translate(574,779) scale(0.41,0.41)"><g transform="" style="fill: rgb(0, 166, 235);">
<rect width="100" height="100"/>
</g></g><g transform="translate(656,779) scale(0.41,0.41)"><g transform="" style="fill: rgb(0, 166, 235);">
<rect width="100" height="100"/>
</g></g><g transform="translate(820,779) scale(0.41,0.41)"><g transform="" style="fill: rgb(0, 166, 235);">
<rect width="100" height="100"/>
</g></g><g transform="translate(369,820) scale(0.41,0.41)"><g transform="" style="fill: rgb(0, 166, 235);">
<rect width="100" height="100"/>
</g></g><g transform="translate(410,820) scale(0.41,0.41)"><g transform="" style="fill: rgb(0, 166, 235);">
<rect width="100" height="100"/>
</g></g><g transform="translate(533,820) scale(0.41,0.41)"><g transform="" style="fill: rgb(0, 166, 235);">
<rect width="100" height="100"/>
</g></g><g transform="translate(574,820) scale(0.41,0.41)"><g transform="" style="fill: rgb(0, 166, 235);">
<rect width="100" height="100"/>
</g></g><g transform="translate(615,820) scale(0.41,0.41)"><g transform="" style="fill: rgb(0, 166, 235);">
<rect width="100" height="100"/>
</g></g><g transform="translate(656,820) scale(0.41,0.41)"><g transform="" style="fill: rgb(0, 166, 235);">
<rect width="100" height="100"/>
</g></g><g transform="translate(697,820) scale(0.41,0.41)"><g transform="" style="fill: rgb(0, 166, 235);">
<rect width="100" height="100"/>
</g></g><g transform="translate(738,820) scale(0.41,0.41)"><g transform="" style="fill: rgb(0, 166, 235);">
<rect width="100" height="100"/>
</g></g><g transform="translate(779,820) scale(0.41,0.41)"><g transform="" style="fill: rgb(0, 166, 235);">
<rect width="100" height="100"/>
</g></g><g transform="translate(820,820) scale(0.41,0.41)"><g transform="" style="fill: rgb(0, 166, 235);">
<rect width="100" height="100"/>
</g></g><g transform="translate(984,820) scale(0.41,0.41)"><g transform="" style="fill: rgb(0, 166, 235);">
<rect width="100" height="100"/>
</g></g><g transform="translate(369,861) scale(0.41,0.41)"><g transform="" style="fill: rgb(0, 166, 235);">
<rect width="100" height="100"/>
</g></g><g transform="translate(533,861) scale(0.41,0.41)"><g transform="" style="fill: rgb(0, 166, 235);">
<rect width="100" height="100"/>
</g></g><g transform="translate(574,861) scale(0.41,0.41)"><g transform="" style="fill: rgb(0, 166, 235);">
<rect width="100" height="100"/>
</g></g><g transform="translate(615,861) scale(0.41,0.41)"><g transform="" style="fill: rgb(0, 166, 235);">
<rect width="100" height="100"/>
</g></g><g transform="translate(697,861) scale(0.41,0.41)"><g transform="" style="fill: rgb(0, 166, 235);">
<rect width="100" height="100"/>
</g></g><g transform="translate(820,861) scale(0.41,0.41)"><g transform="" style="fill: rgb(0, 166, 235);">
<rect width="100" height="100"/>
</g></g><g transform="translate(902,861) scale(0.41,0.41)"><g transform="" style="fill: rgb(0, 166, 235);">
<rect width="100" height="100"/>
</g></g><g transform="translate(943,861) scale(0.41,0.41)"><g transform="" style="fill: rgb(0, 166, 235);">
<rect width="100" height="100"/>
</g></g><g transform="translate(328,902) scale(0.41,0.41)"><g transform="" style="fill: rgb(0, 166, 235);">
<rect width="100" height="100"/>
</g></g><g transform="translate(369,902) scale(0.41,0.41)"><g transform="" style="fill: rgb(0, 166, 235);">
<rect width="100" height="100"/>
</g></g><g transform="translate(410,902) scale(0.41,0.41)"><g transform="" style="fill: rgb(0, 166, 235);">
<rect width="100" height="100"/>
</g></g><g transform="translate(451,902) scale(0.41,0.41)"><g transform="" style="fill: rgb(0, 166, 235);">
<rect width="100" height="100"/>
</g></g><g transform="translate(615,902) scale(0.41,0.41)"><g transform="" style="fill: rgb(0, 166, 235);">
<rect width="100" height="100"/>
</g></g><g transform="translate(697,902) scale(0.41,0.41)"><g transform="" style="fill: rgb(0, 166, 235);">
<rect width="100" height="100"/>
</g></g><g transform="translate(779,902) scale(0.41,0.41)"><g transform="" style="fill: rgb(0, 166, 235);">
<rect width="100" height="100"/>
</g></g><g transform="translate(820,902) scale(0.41,0.41)"><g transform="" style="fill: rgb(0, 166, 235);">
<rect width="100" height="100"/>
</g></g><g transform="translate(861,902) scale(0.41,0.41)"><g transform="" style="fill: rgb(0, 166, 235);">
<rect width="100" height="100"/>
</g></g><g transform="translate(943,902) scale(0.41,0.41)"><g transform="" style="fill: rgb(0, 166, 235);">
<rect width="100" height="100"/>
</g></g><g transform="translate(984,902) scale(0.41,0.41)"><g transform="" style="fill: rgb(0, 166, 235);">
<rect width="100" height="100"/>
</g></g><g transform="translate(533,943) scale(0.41,0.41)"><g transform="" style="fill: rgb(0, 166, 235);">
<rect width="100" height="100"/>
</g></g><g transform="translate(615,943) scale(0.41,0.41)"><g transform="" style="fill: rgb(0, 166, 235);">
<rect width="100" height="100"/>
</g></g><g transform="translate(656,943) scale(0.41,0.41)"><g transform="" style="fill: rgb(0, 166, 235);">
<rect width="100" height="100"/>
</g></g><g transform="translate(697,943) scale(0.41,0.41)"><g transform="" style="fill: rgb(0, 166, 235);">
<rect width="100" height="100"/>
</g></g><g transform="translate(779,943) scale(0.41,0.41)"><g transform="" style="fill: rgb(0, 166, 235);">
<rect width="100" height="100"/>
</g></g><g transform="translate(820,943) scale(0.41,0.41)"><g transform="" style="fill: rgb(0, 166, 235);">
<rect width="100" height="100"/>
</g></g><g transform="translate(328,984) scale(0.41,0.41)"><g transform="" style="fill: rgb(0, 166, 235);">
<rect width="100" height="100"/>
</g></g><g transform="translate(451,984) scale(0.41,0.41)"><g transform="" style="fill: rgb(0, 166, 235);">
<rect width="100" height="100"/>
</g></g><g transform="translate(492,984) scale(0.41,0.41)"><g transform="" style="fill: rgb(0, 166, 235);">
<rect width="100" height="100"/>
</g></g><g transform="translate(533,984) scale(0.41,0.41)"><g transform="" style="fill: rgb(0, 166, 235);">
<rect width="100" height="100"/>
</g></g><g transform="translate(656,984) scale(0.41,0.41)"><g transform="" style="fill: rgb(0, 166, 235);">
<rect width="100" height="100"/>
</g></g><g transform="translate(861,984) scale(0.41,0.41)"><g transform="" style="fill: rgb(0, 166, 235);">
<rect width="100" height="100"/>
</g></g><g transform="translate(984,984) scale(0.41,0.41)"><g transform="" style="fill: rgb(0, 166, 235);">
<rect width="100" height="100"/>
</g></g><g transform="translate(0,0) scale(2.87, 2.87)"><g transform="" style="fill: rgb(242, 142, 0);">
<g>
	<rect x="15" y="15" style="fill:none;" width="70" height="70"/>
	<path d="M85,0H15H0v15v70v15h15h70h15V85V15V0H85z M85,85H15V15h70V85z"/>
</g>
</g></g><g transform="translate(738,0) scale(2.87, 2.87)"><g transform="" style="fill: rgb(242, 142, 0);">
<g>
	<rect x="15" y="15" style="fill:none;" width="70" height="70"/>
	<path d="M85,0H15H0v15v70v15h15h70h15V85V15V0H85z M85,85H15V15h70V85z"/>
</g>
</g></g><g transform="translate(0,738) scale(2.87, 2.87)"><g transform="" style="fill: rgb(242, 142, 0);">
<g>
	<rect x="15" y="15" style="fill:none;" width="70" height="70"/>
	<path d="M85,0H15H0v15v70v15h15h70h15V85V15V0H85z M85,85H15V15h70V85z"/>
</g>
</g></g><g transform="translate(82,82) scale(1.23, 1.23)"><g transform="" style="fill: rgb(242, 142, 0);">
<rect width="100" height="100"/>
</g></g><g transform="translate(820,82) scale(1.23, 1.23)"><g transform="" style="fill: rgb(242, 142, 0);">
<rect width="100" height="100"/>
</g></g><g transform="translate(82,820) scale(1.23, 1.23)"><g transform="" style="fill: rgb(242, 142, 0);">
<rect width="100" height="100"/>
</g></g></g></svg>